<mxfile host="app.diagrams.net" modified="2023-11-30T10:09:21.948Z" agent="Mozilla/5.0 (Windows NT 10.0; Win64; x64) AppleWebKit/537.36 (KHTML, like Gecko) Chrome/119.0.0.0 Safari/537.36" etag="yTDfyJ-4_XrE0hnAhiab" version="22.1.5" type="github">
  <diagram name="Page-1" id="veqEPCzbyBLySImhejDF">
    <mxGraphModel dx="1434" dy="758" grid="1" gridSize="10" guides="1" tooltips="1" connect="1" arrows="1" fold="1" page="1" pageScale="1" pageWidth="827" pageHeight="1169" math="0" shadow="0">
      <root>
        <mxCell id="0" />
        <mxCell id="1" parent="0" />
        <mxCell id="9-cZ1E3FqQJSgoRMAIG4-1" value="debut" style="rounded=1;whiteSpace=wrap;html=1;" vertex="1" parent="1">
          <mxGeometry x="80" y="60" width="120" height="60" as="geometry" />
        </mxCell>
        <mxCell id="9-cZ1E3FqQJSgoRMAIG4-38" style="edgeStyle=orthogonalEdgeStyle;rounded=0;orthogonalLoop=1;jettySize=auto;html=1;exitX=0.5;exitY=1;exitDx=0;exitDy=0;entryX=0.5;entryY=0;entryDx=0;entryDy=0;" edge="1" parent="1" source="9-cZ1E3FqQJSgoRMAIG4-2" target="9-cZ1E3FqQJSgoRMAIG4-10">
          <mxGeometry relative="1" as="geometry">
            <Array as="points">
              <mxPoint x="400" y="830" />
            </Array>
          </mxGeometry>
        </mxCell>
        <mxCell id="9-cZ1E3FqQJSgoRMAIG4-2" value="mettre une tasse sous la machine à café" style="rounded=0;whiteSpace=wrap;html=1;" vertex="1" parent="1">
          <mxGeometry x="340" y="655" width="120" height="60" as="geometry" />
        </mxCell>
        <mxCell id="9-cZ1E3FqQJSgoRMAIG4-6" style="edgeStyle=orthogonalEdgeStyle;rounded=0;orthogonalLoop=1;jettySize=auto;html=1;exitX=1;exitY=0.5;exitDx=0;exitDy=0;entryX=0;entryY=0.5;entryDx=0;entryDy=0;" edge="1" parent="1" source="9-cZ1E3FqQJSgoRMAIG4-3" target="9-cZ1E3FqQJSgoRMAIG4-4">
          <mxGeometry relative="1" as="geometry" />
        </mxCell>
        <mxCell id="9-cZ1E3FqQJSgoRMAIG4-9" value="&lt;font style=&quot;font-size: 13px;&quot;&gt;non&lt;/font&gt;" style="edgeLabel;html=1;align=center;verticalAlign=middle;resizable=0;points=[];" vertex="1" connectable="0" parent="9-cZ1E3FqQJSgoRMAIG4-6">
          <mxGeometry x="0.1" y="1" relative="1" as="geometry">
            <mxPoint as="offset" />
          </mxGeometry>
        </mxCell>
        <mxCell id="9-cZ1E3FqQJSgoRMAIG4-8" style="edgeStyle=orthogonalEdgeStyle;rounded=0;orthogonalLoop=1;jettySize=auto;html=1;exitX=0.5;exitY=1;exitDx=0;exitDy=0;entryX=0.5;entryY=0;entryDx=0;entryDy=0;" edge="1" parent="1" source="9-cZ1E3FqQJSgoRMAIG4-3" target="9-cZ1E3FqQJSgoRMAIG4-7">
          <mxGeometry relative="1" as="geometry" />
        </mxCell>
        <mxCell id="9-cZ1E3FqQJSgoRMAIG4-14" value="oui" style="edgeLabel;html=1;align=center;verticalAlign=middle;resizable=0;points=[];" vertex="1" connectable="0" parent="9-cZ1E3FqQJSgoRMAIG4-8">
          <mxGeometry x="-0.0571" y="1" relative="1" as="geometry">
            <mxPoint as="offset" />
          </mxGeometry>
        </mxCell>
        <mxCell id="9-cZ1E3FqQJSgoRMAIG4-3" value="capsule presente dans la machine" style="rhombus;whiteSpace=wrap;html=1;" vertex="1" parent="1">
          <mxGeometry x="50" y="180" width="180" height="130" as="geometry" />
        </mxCell>
        <mxCell id="9-cZ1E3FqQJSgoRMAIG4-4" value="mettre une capsule dans la machine" style="rounded=0;whiteSpace=wrap;html=1;" vertex="1" parent="1">
          <mxGeometry x="330" y="215" width="120" height="60" as="geometry" />
        </mxCell>
        <mxCell id="9-cZ1E3FqQJSgoRMAIG4-33" style="edgeStyle=orthogonalEdgeStyle;rounded=0;orthogonalLoop=1;jettySize=auto;html=1;exitX=1;exitY=0.5;exitDx=0;exitDy=0;entryX=0;entryY=0.5;entryDx=0;entryDy=0;" edge="1" parent="1" source="9-cZ1E3FqQJSgoRMAIG4-5" target="9-cZ1E3FqQJSgoRMAIG4-31">
          <mxGeometry relative="1" as="geometry" />
        </mxCell>
        <mxCell id="9-cZ1E3FqQJSgoRMAIG4-5" value="attendre 2min" style="rounded=0;whiteSpace=wrap;html=1;" vertex="1" parent="1">
          <mxGeometry x="492.5" y="770" width="120" height="60" as="geometry" />
        </mxCell>
        <mxCell id="9-cZ1E3FqQJSgoRMAIG4-12" style="edgeStyle=orthogonalEdgeStyle;rounded=0;orthogonalLoop=1;jettySize=auto;html=1;exitX=1;exitY=0.5;exitDx=0;exitDy=0;entryX=0;entryY=0.5;entryDx=0;entryDy=0;" edge="1" parent="1" source="9-cZ1E3FqQJSgoRMAIG4-7" target="9-cZ1E3FqQJSgoRMAIG4-11">
          <mxGeometry relative="1" as="geometry" />
        </mxCell>
        <mxCell id="9-cZ1E3FqQJSgoRMAIG4-13" value="&lt;font style=&quot;font-size: 13px;&quot;&gt;non&lt;/font&gt;" style="edgeLabel;html=1;align=center;verticalAlign=middle;resizable=0;points=[];" vertex="1" connectable="0" parent="9-cZ1E3FqQJSgoRMAIG4-12">
          <mxGeometry x="-0.3538" y="-1" relative="1" as="geometry">
            <mxPoint as="offset" />
          </mxGeometry>
        </mxCell>
        <mxCell id="9-cZ1E3FqQJSgoRMAIG4-18" style="edgeStyle=orthogonalEdgeStyle;rounded=0;orthogonalLoop=1;jettySize=auto;html=1;exitX=0.5;exitY=1;exitDx=0;exitDy=0;entryX=0.5;entryY=0;entryDx=0;entryDy=0;" edge="1" parent="1" source="9-cZ1E3FqQJSgoRMAIG4-7" target="9-cZ1E3FqQJSgoRMAIG4-17">
          <mxGeometry relative="1" as="geometry" />
        </mxCell>
        <mxCell id="9-cZ1E3FqQJSgoRMAIG4-19" value="&lt;font style=&quot;font-size: 13px;&quot;&gt;oui&lt;/font&gt;" style="edgeLabel;html=1;align=center;verticalAlign=middle;resizable=0;points=[];" vertex="1" connectable="0" parent="9-cZ1E3FqQJSgoRMAIG4-18">
          <mxGeometry x="-0.0588" y="-2" relative="1" as="geometry">
            <mxPoint as="offset" />
          </mxGeometry>
        </mxCell>
        <mxCell id="9-cZ1E3FqQJSgoRMAIG4-7" value="Eau suffisante dans la machine" style="rhombus;whiteSpace=wrap;html=1;" vertex="1" parent="1">
          <mxGeometry x="47.5" y="380" width="185" height="150" as="geometry" />
        </mxCell>
        <mxCell id="9-cZ1E3FqQJSgoRMAIG4-35" style="edgeStyle=orthogonalEdgeStyle;rounded=0;orthogonalLoop=1;jettySize=auto;html=1;exitX=0.5;exitY=1;exitDx=0;exitDy=0;" edge="1" parent="1" source="9-cZ1E3FqQJSgoRMAIG4-10" target="9-cZ1E3FqQJSgoRMAIG4-24">
          <mxGeometry relative="1" as="geometry" />
        </mxCell>
        <mxCell id="9-cZ1E3FqQJSgoRMAIG4-10" value="allumer le chauffage de la machine à café" style="rounded=0;whiteSpace=wrap;html=1;" vertex="1" parent="1">
          <mxGeometry x="80" y="830" width="120" height="60" as="geometry" />
        </mxCell>
        <mxCell id="9-cZ1E3FqQJSgoRMAIG4-37" style="edgeStyle=orthogonalEdgeStyle;rounded=0;orthogonalLoop=1;jettySize=auto;html=1;exitX=0.5;exitY=1;exitDx=0;exitDy=0;entryX=0.5;entryY=0;entryDx=0;entryDy=0;" edge="1" parent="1" source="9-cZ1E3FqQJSgoRMAIG4-11" target="9-cZ1E3FqQJSgoRMAIG4-17">
          <mxGeometry relative="1" as="geometry">
            <Array as="points">
              <mxPoint x="390" y="610" />
            </Array>
          </mxGeometry>
        </mxCell>
        <mxCell id="9-cZ1E3FqQJSgoRMAIG4-11" value="rajouter de l&#39;eau dans la machine" style="rounded=0;whiteSpace=wrap;html=1;" vertex="1" parent="1">
          <mxGeometry x="330" y="425" width="120" height="60" as="geometry" />
        </mxCell>
        <mxCell id="9-cZ1E3FqQJSgoRMAIG4-20" style="edgeStyle=orthogonalEdgeStyle;rounded=0;orthogonalLoop=1;jettySize=auto;html=1;exitX=1;exitY=0.5;exitDx=0;exitDy=0;entryX=0;entryY=0.5;entryDx=0;entryDy=0;" edge="1" parent="1" source="9-cZ1E3FqQJSgoRMAIG4-17" target="9-cZ1E3FqQJSgoRMAIG4-2">
          <mxGeometry relative="1" as="geometry" />
        </mxCell>
        <mxCell id="9-cZ1E3FqQJSgoRMAIG4-21" value="&lt;font style=&quot;font-size: 13px;&quot;&gt;non&lt;/font&gt;" style="edgeLabel;html=1;align=center;verticalAlign=middle;resizable=0;points=[];" vertex="1" connectable="0" parent="9-cZ1E3FqQJSgoRMAIG4-20">
          <mxGeometry x="-0.1282" relative="1" as="geometry">
            <mxPoint as="offset" />
          </mxGeometry>
        </mxCell>
        <mxCell id="9-cZ1E3FqQJSgoRMAIG4-34" style="edgeStyle=orthogonalEdgeStyle;rounded=0;orthogonalLoop=1;jettySize=auto;html=1;exitX=0.5;exitY=1;exitDx=0;exitDy=0;" edge="1" parent="1" source="9-cZ1E3FqQJSgoRMAIG4-17" target="9-cZ1E3FqQJSgoRMAIG4-10">
          <mxGeometry relative="1" as="geometry" />
        </mxCell>
        <mxCell id="9-cZ1E3FqQJSgoRMAIG4-17" value="présence&amp;nbsp; d&#39;une tasse à café dans la machine&amp;nbsp;" style="rhombus;whiteSpace=wrap;html=1;" vertex="1" parent="1">
          <mxGeometry x="50" y="610" width="185" height="150" as="geometry" />
        </mxCell>
        <mxCell id="9-cZ1E3FqQJSgoRMAIG4-32" style="edgeStyle=orthogonalEdgeStyle;rounded=0;orthogonalLoop=1;jettySize=auto;html=1;exitX=0.5;exitY=0;exitDx=0;exitDy=0;entryX=0.5;entryY=1;entryDx=0;entryDy=0;" edge="1" parent="1" source="9-cZ1E3FqQJSgoRMAIG4-23" target="9-cZ1E3FqQJSgoRMAIG4-31">
          <mxGeometry relative="1" as="geometry" />
        </mxCell>
        <mxCell id="9-cZ1E3FqQJSgoRMAIG4-23" value="attendre 1min" style="rounded=0;whiteSpace=wrap;html=1;" vertex="1" parent="1">
          <mxGeometry x="760" y="960" width="120" height="60" as="geometry" />
        </mxCell>
        <mxCell id="9-cZ1E3FqQJSgoRMAIG4-26" style="edgeStyle=orthogonalEdgeStyle;rounded=0;orthogonalLoop=1;jettySize=auto;html=1;exitX=1;exitY=0.5;exitDx=0;exitDy=0;entryX=0;entryY=0.5;entryDx=0;entryDy=0;" edge="1" parent="1" source="9-cZ1E3FqQJSgoRMAIG4-24" target="9-cZ1E3FqQJSgoRMAIG4-25">
          <mxGeometry relative="1" as="geometry" />
        </mxCell>
        <mxCell id="9-cZ1E3FqQJSgoRMAIG4-24" value="allumer la pompe à eau de la machine à café" style="rounded=0;whiteSpace=wrap;html=1;" vertex="1" parent="1">
          <mxGeometry x="80" y="960" width="120" height="60" as="geometry" />
        </mxCell>
        <mxCell id="9-cZ1E3FqQJSgoRMAIG4-27" style="edgeStyle=orthogonalEdgeStyle;rounded=0;orthogonalLoop=1;jettySize=auto;html=1;exitX=1;exitY=0.5;exitDx=0;exitDy=0;" edge="1" parent="1" source="9-cZ1E3FqQJSgoRMAIG4-25" target="9-cZ1E3FqQJSgoRMAIG4-23">
          <mxGeometry relative="1" as="geometry" />
        </mxCell>
        <mxCell id="9-cZ1E3FqQJSgoRMAIG4-28" value="&lt;font style=&quot;font-size: 13px;&quot;&gt;oui&lt;/font&gt;" style="edgeLabel;html=1;align=center;verticalAlign=middle;resizable=0;points=[];" vertex="1" connectable="0" parent="9-cZ1E3FqQJSgoRMAIG4-27">
          <mxGeometry x="0.0435" y="-3" relative="1" as="geometry">
            <mxPoint as="offset" />
          </mxGeometry>
        </mxCell>
        <mxCell id="9-cZ1E3FqQJSgoRMAIG4-29" style="edgeStyle=orthogonalEdgeStyle;rounded=0;orthogonalLoop=1;jettySize=auto;html=1;exitX=0.5;exitY=0;exitDx=0;exitDy=0;" edge="1" parent="1" source="9-cZ1E3FqQJSgoRMAIG4-25" target="9-cZ1E3FqQJSgoRMAIG4-5">
          <mxGeometry relative="1" as="geometry">
            <mxPoint x="553" y="840" as="targetPoint" />
          </mxGeometry>
        </mxCell>
        <mxCell id="9-cZ1E3FqQJSgoRMAIG4-30" value="&lt;font style=&quot;font-size: 13px;&quot;&gt;non&lt;/font&gt;" style="edgeLabel;html=1;align=center;verticalAlign=middle;resizable=0;points=[];" vertex="1" connectable="0" parent="9-cZ1E3FqQJSgoRMAIG4-29">
          <mxGeometry x="-0.0588" y="2" relative="1" as="geometry">
            <mxPoint x="1" as="offset" />
          </mxGeometry>
        </mxCell>
        <mxCell id="9-cZ1E3FqQJSgoRMAIG4-25" value="café court" style="rhombus;whiteSpace=wrap;html=1;" vertex="1" parent="1">
          <mxGeometry x="460" y="915" width="185" height="150" as="geometry" />
        </mxCell>
        <mxCell id="9-cZ1E3FqQJSgoRMAIG4-31" value="fin" style="rounded=1;whiteSpace=wrap;html=1;" vertex="1" parent="1">
          <mxGeometry x="760" y="770" width="120" height="60" as="geometry" />
        </mxCell>
        <mxCell id="9-cZ1E3FqQJSgoRMAIG4-36" style="edgeStyle=orthogonalEdgeStyle;rounded=0;orthogonalLoop=1;jettySize=auto;html=1;exitX=0.5;exitY=1;exitDx=0;exitDy=0;entryX=0.549;entryY=0.013;entryDx=0;entryDy=0;entryPerimeter=0;" edge="1" parent="1" source="9-cZ1E3FqQJSgoRMAIG4-4" target="9-cZ1E3FqQJSgoRMAIG4-7">
          <mxGeometry relative="1" as="geometry">
            <Array as="points">
              <mxPoint x="390" y="380" />
              <mxPoint x="149" y="380" />
            </Array>
          </mxGeometry>
        </mxCell>
      </root>
    </mxGraphModel>
  </diagram>
</mxfile>
